<?xml version="1.0" encoding="UTF-8" standalone="no" ?>
<!DOCTYPE svg PUBLIC "-//W3C//DTD SVG 1.1//EN" "http://www.w3.org/Graphics/SVG/1.1/DTD/svg11.dtd">
<svg xmlns="http://www.w3.org/2000/svg" xmlns:xlink="http://www.w3.org/1999/xlink" version="1.1" width="1280" height="1024" viewBox="0 0 1280 1024" xml:space="preserve">
<desc>Created with Fabric.js 5.3.0</desc>
<defs>
</defs>
<g transform="matrix(1 0 0 1 640 512)" id="background-logo"  >
<rect style="stroke: none; stroke-width: 0; stroke-dasharray: none; stroke-linecap: butt; stroke-dashoffset: 0; stroke-linejoin: miter; stroke-miterlimit: 4; fill: rgb(255,255,255); fill-opacity: 0; fill-rule: nonzero; opacity: 1;"  paint-order="stroke"  x="-640" y="-512" rx="0" ry="0" width="1280" height="1024" />
</g>
<g transform="matrix(1.9211538461538462 0 0 1.9211538461538462 768.4761551585827 505.57222630028303)" id="text-logo"  >
<g style=""  paint-order="stroke"   >
		<g transform="matrix(1 0 0 1 -5.684342e-14 0)" id="text-logo-path-0"  >
<path style="stroke: none; stroke-width: 1.0693722847426292; stroke-dasharray: none; stroke-linecap: butt; stroke-dashoffset: 0; stroke-linejoin: miter; stroke-miterlimit: 4; fill: rgb(0,0,0); fill-rule: nonzero; opacity: 1;"  paint-order="stroke"  transform=" translate(-207.37500000000003, 20.835)" d="M 23.04 0.61 Q 16.59 0.61 11.75 -2.06 Q 6.9 -4.73 4.27 -9.62 Q 1.64 -14.5 1.64 -20.96 L 1.64 -20.96 Q 1.64 -27.47 4.31 -32.29 Q 6.99 -37.1 11.83 -39.69 Q 16.67 -42.28 23.04 -42.28 L 23.04 -42.28 Q 27.86 -42.28 31.98 -40.51 Q 36.1 -38.74 38.88 -35.44 Q 41.66 -32.15 42.53 -27.69 L 42.53 -27.69 L 32.84 -27.69 Q 32.29 -29.47 30.85 -30.81 Q 29.42 -32.15 27.39 -32.87 Q 25.35 -33.59 23.04 -33.59 L 23.04 -33.59 Q 19.65 -33.59 16.87 -32.09 Q 14.08 -30.59 12.47 -27.71 Q 10.85 -24.83 10.85 -20.9 L 10.85 -20.9 Q 10.85 -17.03 12.47 -14.12 Q 14.08 -11.22 16.85 -9.66 Q 19.62 -8.1 23.04 -8.1 L 23.04 -8.1 Q 26.64 -8.1 29.33 -9.69 Q 32.03 -11.27 32.84 -14.08 L 32.84 -14.08 L 42.58 -14.08 Q 41.72 -9.6 38.9 -6.28 Q 36.07 -2.95 31.92 -1.17 Q 27.78 0.61 23.04 0.61 L 23.04 0.61 Z M 73.31 0.61 Q 66.86 0.61 62.01 -2.06 Q 57.17 -4.73 54.55 -9.62 Q 51.94 -14.5 51.94 -20.96 L 51.94 -20.96 Q 51.94 -27.47 54.6 -32.29 Q 57.25 -37.1 62.11 -39.69 Q 66.97 -42.28 73.37 -42.28 L 73.37 -42.28 Q 79.85 -42.28 84.68 -39.66 Q 89.51 -37.04 92.14 -32.2 Q 94.77 -27.36 94.77 -20.9 L 94.77 -20.9 Q 94.77 -14.39 92.1 -9.52 Q 89.43 -4.65 84.57 -2.02 Q 79.71 0.61 73.31 0.61 L 73.31 0.61 Z M 61.12 -20.96 Q 61.12 -17.03 62.74 -14.11 Q 64.35 -11.19 67.13 -9.64 Q 69.92 -8.1 73.31 -8.1 L 73.31 -8.1 Q 76.76 -8.1 79.56 -9.64 Q 82.36 -11.19 83.97 -14.1 Q 85.59 -17.01 85.59 -20.96 L 85.59 -20.96 Q 85.59 -24.83 83.97 -27.69 Q 82.36 -30.56 79.56 -32.08 Q 76.76 -33.59 73.31 -33.59 L 73.31 -33.59 Q 69.92 -33.59 67.13 -32.09 Q 64.35 -30.59 62.74 -27.72 Q 61.12 -24.85 61.12 -20.96 L 61.12 -20.96 Z M 107.41 0 L 107.41 -41.66 L 119.96 -41.66 Q 124.94 -41.66 128.09 -40.68 Q 131.23 -39.69 133.1 -37.77 L 133.1 -37.77 Q 136.22 -34.46 136.22 -28.81 L 136.22 -28.81 Q 136.22 -22.82 132.79 -19.62 L 132.79 -19.62 Q 131.62 -18.51 130.13 -17.78 Q 128.65 -17.06 126.59 -16.64 L 126.59 -16.64 L 139.22 0 L 127.64 0 L 116.59 -15.78 L 116.59 0 L 107.41 0 Z M 116.59 -22.74 L 119.04 -22.74 Q 120.8 -22.74 121.95 -22.84 Q 123.11 -22.93 124.19 -23.38 Q 125.28 -23.82 125.97 -24.77 L 125.97 -24.77 Q 127.03 -26.11 127.03 -28.25 L 127.03 -28.25 Q 127.03 -30.48 125.97 -31.76 L 125.97 -31.76 Q 125.28 -32.67 124.21 -33.09 Q 123.13 -33.51 121.98 -33.61 Q 120.82 -33.7 119.04 -33.7 L 119.04 -33.7 L 116.59 -33.7 L 116.59 -22.74 Z M 150.33 0 L 150.33 -41.66 L 158.9 -41.66 L 176.32 -15.7 L 176.32 -41.66 L 185.51 -41.66 L 185.51 0 L 176.94 0 L 159.51 -25.97 L 159.51 0 L 150.33 0 Z M 200.93 0 L 200.93 -41.66 L 225.09 -41.66 L 225.09 -33.34 L 210.12 -33.34 L 210.12 -25.69 L 224.48 -25.69 L 224.48 -17.34 L 210.12 -17.34 L 210.12 -8.32 L 225.09 -8.32 L 225.09 0 L 200.93 0 Z M 258.02 0 L 258.02 -41.66 L 267.2 -41.66 L 267.2 -8.32 L 282.18 -8.32 L 282.18 0 L 258.02 0 Z M 288.89 0 L 305.78 -41.66 L 313.58 -41.66 L 330.5 0 L 320.62 0 L 317.5 -8.41 L 301.86 -8.41 L 298.74 0 L 288.89 0 Z M 304.64 -15.95 L 314.69 -15.95 L 309.65 -29.53 L 304.64 -15.95 Z M 341.3 0 L 341.3 -41.66 L 351.96 -41.66 Q 357.11 -41.66 360.29 -40.72 Q 363.48 -39.77 365.32 -37.99 L 365.32 -37.99 Q 366.85 -36.6 367.59 -34.69 Q 368.32 -32.79 368.32 -30.64 L 368.32 -30.64 Q 368.32 -27.69 367.06 -25.51 Q 365.79 -23.32 363.56 -22.38 L 363.56 -22.38 Q 367.07 -21.49 369.23 -18.93 Q 371.39 -16.37 371.39 -12.08 L 371.39 -12.08 Q 371.39 -9.46 370.47 -7.28 Q 369.55 -5.09 367.66 -3.51 L 367.66 -3.51 Q 365.62 -1.78 362.33 -0.89 Q 359.03 0 353.85 0 L 353.85 0 L 341.3 0 Z M 350.48 -7.96 L 354.46 -7.96 Q 356.36 -7.96 357.46 -8.03 Q 358.55 -8.1 359.52 -8.43 Q 360.48 -8.77 361.14 -9.49 L 361.14 -9.49 Q 362.2 -10.69 362.2 -12.69 L 362.2 -12.69 Q 362.2 -14.81 361.03 -16.06 L 361.03 -16.06 Q 360.36 -16.7 359.43 -16.98 Q 358.5 -17.26 357.43 -17.33 Q 356.36 -17.4 354.46 -17.4 L 354.46 -17.4 L 350.48 -17.4 L 350.48 -7.96 Z M 350.48 -24.77 L 353.49 -24.77 Q 355.77 -24.77 356.83 -25.03 Q 357.89 -25.3 358.39 -25.86 L 358.39 -25.86 Q 359.56 -27.02 359.56 -29.17 L 359.56 -29.17 Q 359.56 -31.12 358.53 -32.37 L 358.53 -32.37 Q 357.89 -33.06 356.65 -33.38 Q 355.41 -33.7 352.88 -33.7 L 352.88 -33.7 L 350.48 -33.7 L 350.48 -24.77 Z M 397.66 0.61 Q 392.93 0.61 389.09 -0.9 Q 385.25 -2.42 382.98 -5.64 Q 380.71 -8.85 380.8 -13.72 L 380.8 -13.72 L 390.37 -13.72 Q 390.37 -10.41 392.47 -8.64 Q 394.57 -6.87 397.97 -6.87 L 397.97 -6.87 Q 400.58 -6.87 402.25 -7.99 Q 403.92 -9.1 403.92 -11.72 L 403.92 -11.72 Q 403.92 -13.5 402.84 -14.56 Q 401.75 -15.61 400.12 -16.17 Q 398.5 -16.73 395.52 -17.4 L 395.52 -17.4 Q 394.02 -17.7 392.32 -18.15 L 392.32 -18.15 Q 389.31 -18.95 387.14 -20.12 Q 384.97 -21.29 383.54 -23.52 Q 382.1 -25.74 382.1 -29.31 L 382.1 -29.31 Q 382.1 -33.62 384.19 -36.54 Q 386.28 -39.47 389.65 -40.87 Q 393.01 -42.28 396.85 -42.28 L 396.85 -42.28 Q 400.72 -42.28 404.16 -40.86 Q 407.6 -39.44 409.77 -36.46 Q 411.94 -33.48 411.94 -29 L 411.94 -29 L 402.92 -29 Q 402.7 -31.87 400.97 -33.34 Q 399.25 -34.82 396.49 -34.82 L 396.49 -34.82 Q 394.13 -34.82 392.71 -33.73 Q 391.29 -32.65 391.29 -30.59 L 391.29 -30.59 Q 391.29 -28.89 392.29 -27.9 Q 393.29 -26.91 394.84 -26.41 Q 396.38 -25.91 399.14 -25.35 L 399.14 -25.35 L 400.42 -25.08 Q 404.17 -24.24 406.86 -23.02 Q 409.55 -21.79 411.33 -19.32 Q 413.11 -16.84 413.11 -12.75 L 413.11 -12.75 Q 413.11 -7.88 410.98 -4.9 Q 408.85 -1.92 405.4 -0.65 Q 401.95 0.61 397.66 0.61 L 397.66 0.61 Z" stroke-linecap="round" />
</g>
</g>
</g>
<g transform="matrix(1.0902876112071156 0 0 1.0902876112071156 210.9172315789474 511.24887218045114)" id="logo-logo"  >
<g style=""  paint-order="stroke"   >
		<g transform="matrix(1.3739312348661528 0 0 -1.3739312348661528 -0.13495249328889258 -72.55255789838478)"  >
<path style="stroke: none; stroke-width: 1; stroke-dasharray: none; stroke-linecap: butt; stroke-dashoffset: 0; stroke-linejoin: miter; stroke-miterlimit: 4; fill: rgb(0,0,0); fill-rule: evenodd; opacity: 1;"  paint-order="stroke"  transform=" translate(-162.40200000000002, -204.427)" d="M 162.199 203.21 L 125.70800000000001 182.024 L 104.96400000000001 194.124 L 161.44500000000002 227.421 L 219.84000000000003 194.134 L 198.60600000000002 181.433 z" stroke-linecap="round" />
</g>
		<g transform="matrix(1.3739312348661528 0 0 -1.3739312348661528 0 26.32526757007824)"  >
<path style="stroke: none; stroke-width: 1; stroke-dasharray: none; stroke-linecap: butt; stroke-dashoffset: 0; stroke-linejoin: miter; stroke-miterlimit: 4; fill: rgb(0,0,0); fill-rule: evenodd; opacity: 1;"  paint-order="stroke"  transform=" translate(-162.5, -132.476)" d="M 207.183 152.593 L 162.19899999999998 126.61499999999998 L 117.59799999999998 152.593 L 117.59799999999998 125.29199999999999 L 162.19899999999998 99.85399999999998 L 207.183 125.29199999999999 z M 228.643 189.11599999999999 L 228.643 113.565 L 161.49 75.836 L 96.357 112.795 L 96.357 189.055 L 162.501 151.633 z" stroke-linecap="round" />
</g>
</g>
</g>
</svg>